<?xml version="1.0" encoding="UTF-8" standalone="no"?>
<!-- Created with Inkscape (http://www.inkscape.org/) -->

<svg
   xmlns:dc="http://purl.org/dc/elements/1.1/"
   xmlns:cc="http://creativecommons.org/ns#"
   xmlns:rdf="http://www.w3.org/1999/02/22-rdf-syntax-ns#"
   xmlns:svg="http://www.w3.org/2000/svg"
   xmlns="http://www.w3.org/2000/svg"
   xmlns:sodipodi="http://sodipodi.sourceforge.net/DTD/sodipodi-0.dtd"
   xmlns:inkscape="http://www.inkscape.org/namespaces/inkscape"
   width="12.577905mm"
   height="12.563475mm"
   viewBox="0 0 12.577905 12.563475"
   version="1.1"
   id="svg8"
   inkscape:version="0.92.5 (2060ec1f9f, 2020-04-08)"
   sodipodi:docname="moon.svg">
  <defs
     id="defs2" />
  <sodipodi:namedview
     id="base"
     pagecolor="#ffffff"
     bordercolor="#666666"
     borderopacity="1.0"
     inkscape:pageopacity="0.0"
     inkscape:pageshadow="2"
     inkscape:zoom="9.0754386"
     inkscape:cx="105.1569"
     inkscape:cy="-8.6605763"
     inkscape:document-units="mm"
     inkscape:current-layer="g1004"
     showgrid="false"
     inkscape:window-width="2936"
     inkscape:window-height="1600"
     inkscape:window-x="136"
     inkscape:window-y="54"
     inkscape:window-maximized="1" />
  <metadata
     id="metadata5">
    <rdf:RDF>
      <cc:Work
         rdf:about="">
        <dc:format>image/svg+xml</dc:format>
        <dc:type
           rdf:resource="http://purl.org/dc/dcmitype/StillImage" />
        <dc:title></dc:title>
      </cc:Work>
    </rdf:RDF>
  </metadata>
  <g
     inkscape:label="Layer 1"
     inkscape:groupmode="layer"
     id="layer1"
     transform="translate(205.10443,119.76388)">
    <g
       id="g1004"
       transform="matrix(0.26458333,0,0,0.26458333,-205.10443,-119.77102)">
      <g
         id="g947">
	<g
   id="g945">
		<path
   id="path943"
   d="M 24.997,47.511 C 11.214,47.511 0,36.298 0,22.515 0,12.969 5.314,4.392 13.869,0.132 c 0.385,-0.191 0.848,-0.117 1.151,0.186 0.303,0.303 0.381,0.766 0.192,1.15 -1.561,3.172 -2.352,6.582 -2.352,10.133 0,12.681 10.316,22.997 22.997,22.997 3.59,0 7.033,-0.809 10.236,-2.403 0.386,-0.191 0.848,-0.117 1.151,0.186 0.304,0.303 0.381,0.766 0.192,1.15 -4.24,8.622 -12.839,13.98 -22.439,13.98 z M 12.248,3.372 C 5.862,7.608 2,14.709 2,22.515 c 0,12.68 10.316,22.996 22.997,22.996 7.854,0 14.981,-3.898 19.207,-10.343 -2.668,0.95 -5.464,1.43 -8.346,1.43 -13.783,0 -24.997,-11.214 -24.997,-24.997 0,-2.84 0.466,-5.596 1.387,-8.229 z"
   style="fill:#e5e5e5;fill-opacity:1"
   inkscape:connector-curvature="0" />

	</g>

</g>
      <g
         id="g949">
</g>
      <g
         id="g951">
</g>
      <g
         id="g953">
</g>
      <g
         id="g955">
</g>
      <g
         id="g957">
</g>
      <g
         id="g959">
</g>
      <g
         id="g961">
</g>
      <g
         id="g963">
</g>
      <g
         id="g965">
</g>
      <g
         id="g967">
</g>
      <g
         id="g969">
</g>
      <g
         id="g971">
</g>
      <g
         id="g973">
</g>
      <g
         id="g975">
</g>
      <g
         id="g977">
</g>
    </g>
  </g>
</svg>
